<?xml version="1.0" encoding="utf-8"?>
<!-- Generator: Adobe Illustrator 27.9.1, SVG Export Plug-In . SVG Version: 6.00 Build 0)  -->
<svg version="1.1" id="Calque_1" xmlns="http://www.w3.org/2000/svg" xmlns:xlink="http://www.w3.org/1999/xlink" x="0px" y="0px"
	 viewBox="0 0 265 265" style="enable-background:new 0 0 265 265;" xml:space="preserve">
<style type="text/css">
	.st0{fill:#90C2E7;}
	.st1{fill:#FFFFFF;}
</style>
<circle class="st0" cx="132.5" cy="132.5" r="132.4"/>
<g>
	<path class="st1" d="M107.2,107.6c-6-6.1-6-15.9,0-22s15.7-6.1,21.7,0l3.6,3.7l3.6-3.7c6-6.1,15.7-6.1,21.7,0s6,15.9,0,22l-20.7,21
		c-1.3,1.3-2.9,1.9-4.6,1.9s-3.3-0.6-4.6-1.9L107.2,107.6z M189.6,148.2c2.7,3.6,1.9,8.7-1.7,11.4l-25.8,19
		c-4.8,3.5-10.5,5.4-16.4,5.4H113H80.3c-3.6,0-6.5-2.9-6.5-6.5v-13c0-3.6,2.9-6.5,6.5-6.5h7.5l9.2-7.3c4.6-3.7,10.4-5.7,16.3-5.7h16
		h3.3h12.9c3.3,0,6.4,2.7,6.6,6.1c0.3,3.8-2.7,7-6.5,7h-13h-3.2c-1.6,0-3,1.1-3.3,2.6c-0.4,2.1,1.2,3.9,3.2,3.9h24.6l24.4-18
		C181.8,143.8,186.9,144.6,189.6,148.2z M113.3,157.9L113.3,157.9h-0.2C113.1,157.9,113.2,157.9,113.3,157.9z"/>
</g>
</svg>
