<?xml version="1.0" encoding="utf-8"?>
<!-- Generator: Adobe Illustrator 27.9.1, SVG Export Plug-In . SVG Version: 6.00 Build 0)  -->
<svg version="1.1" id="Calque_1" xmlns="http://www.w3.org/2000/svg" xmlns:xlink="http://www.w3.org/1999/xlink" x="0px" y="0px"
	 viewBox="0 0 265 265" style="enable-background:new 0 0 265 265;" xml:space="preserve">
<style type="text/css">
	.st0{fill:#FF4D00;}
	.st1{fill:#FFFFFF;}
</style>
<circle class="st0" cx="132.5" cy="132.7" r="132.4"/>
<g>
	<path class="st1" d="M84.6,173.7h11.6c2.6,6.1,8.7,10.3,15.7,10.3c7,0,13.1-4.2,15.7-10.3h52.8c3.5,0,6.7-2.9,7-6.4
		c0.3-4-2.9-7.4-6.8-7.4h-52.9c-2.6-6.1-8.7-10.3-15.7-10.3c-7,0-13.1,4.2-15.7,10.3H84.4c-4,0-7.1,3.3-6.8,7.4
		C77.8,170.8,81.1,173.7,84.6,173.7z M105,166.8c0-3.8,3.1-6.9,6.9-6.9c3.8,0,6.9,3.1,6.9,6.9s-3.1,6.9-6.9,6.9
		C108.1,173.6,105,170.6,105,166.8z M146.2,132.4c0-3.8,3.1-6.9,6.9-6.9s6.9,3.1,6.9,6.9s-3.1,6.9-6.9,6.9S146.2,136.2,146.2,132.4z
		 M153.1,115.3c-7,0-13.1,4.2-15.7,10.3H84.6c-3.5,0-6.7,2.9-7,6.4c-0.3,4,2.9,7.4,6.8,7.4h52.9c2.6,6.1,8.7,10.3,15.7,10.3
		s13.1-4.2,15.7-10.3h11.6c3.5,0,6.7-2.9,7-6.4c0.3-4-2.9-7.4-6.8-7.4h-11.7C166.2,119.6,160.1,115.3,153.1,115.3z M118.8,105
		c-3.8,0-6.9-3.1-6.9-6.9c0-3.8,3.1-6.9,6.9-6.9c3.8,0,6.9,3.1,6.9,6.9C125.6,101.9,122.6,105,118.8,105z M134.5,91.3
		c-2.6-6.1-8.7-10.3-15.7-10.3c-7,0-13.1,4.2-15.7,10.3H84.6c-3.5,0-6.7,2.9-7,6.4c-0.3,4,2.9,7.4,6.8,7.4H103
		c2.6,6.1,8.7,10.3,15.7,10.3c7,0,13.1-4.2,15.7-10.3h45.9c3.5,0,6.7-2.9,7-6.4c0.3-4-2.9-7.4-6.8-7.4H134.5z"/>
</g>
</svg>
