<?xml version="1.0" encoding="utf-8"?>
<!-- Generator: Adobe Illustrator 27.9.3, SVG Export Plug-In . SVG Version: 9.03 Build 53313)  -->
<svg version="1.1" id="Calque_1" xmlns="http://www.w3.org/2000/svg" xmlns:xlink="http://www.w3.org/1999/xlink" x="0px" y="0px"
	 viewBox="0 0 730 730" style="enable-background:new 0 0 730 730;" xml:space="preserve">
<style type="text/css">
	.st0{fill:#FFFFFF;}
	.st1{fill:#FF4D00;}
</style>
<rect class="st0" width="730" height="730"/>
<path class="st1" d="M201.6,155.3c7.9-15.8,1.5-35-14.3-42.9s-35-1.5-42.9,14.3L58.5,298.4C49.6,316.2,45,335.8,45,355.7v9.3
	c0,70.7,57.3,128,128,128h72h8v-0.3c35.2-2.7,65.4-22.8,82.1-51.7c8.8-15.3,3.6-34.9-11.7-43.7s-34.9-3.6-43.7,11.7
	c-7,12-19.9,20-34.7,20c-22.1,0-40-17.9-40-40s17.9-40,40-40c14.8,0,27.7,8,34.7,20c8.8,15.3,28.4,20.5,43.7,11.7
	s20.5-28.4,11.7-43.7c-12.8-22.1-33.6-39.1-58.4-47.1l80.8-22c17-4.6,27.1-22.2,22.5-39.3s-22.2-27.1-39.3-22.5l-100.8,27.5l81.6-68
	c13.6-11.3,15.4-31.5,4.1-45.1s-31.5-15.4-45.1-4.1l-101.9,84.9C178.6,201.3,201.6,155.3,201.6,155.3z M528.4,574.7
	c-7.9,15.8-1.5,35,14.3,42.9c15.8,7.9,35,1.5,42.9-14.3l85.9-171.7c8.9-17.8,13.5-37.4,13.5-57.2V365c0-70.7-57.3-128-128-128h-72
	h-8v0.3c-35.2,2.7-65.4,22.8-82.1,51.7c-8.9,15.3-3.6,34.9,11.7,43.7c15.3,8.8,34.9,3.6,43.7-11.7c7-12,19.9-20,34.7-20
	c22.1,0,40,17.9,40,40s-17.9,40-40,40c-14.8,0-27.7-8-34.7-20c-8.9-15.3-28.4-20.5-43.7-11.7c-15.3,8.8-20.5,28.4-11.7,43.7
	c12.8,22.1,33.6,39.1,58.4,47.1l-80.8,22c-17.1,4.7-27.1,22.2-22.5,39.3c4.6,17.1,22.2,27.1,39.3,22.5L490,496.4l-81.6,68
	c-13.6,11.3-15.4,31.5-4.1,45.1c11.3,13.6,31.5,15.4,45.1,4.1l101.9-84.9l-23,46H528.4z"/>
</svg>
