<?xml version="1.0" encoding="utf-8"?>
<!-- Generator: Adobe Illustrator 27.9.1, SVG Export Plug-In . SVG Version: 6.00 Build 0)  -->
<svg version="1.1" id="Calque_1" xmlns="http://www.w3.org/2000/svg" xmlns:xlink="http://www.w3.org/1999/xlink" x="0px" y="0px"
	 viewBox="0 0 265 265" style="enable-background:new 0 0 265 265;" xml:space="preserve">
<style type="text/css">
	.st0{fill:#FF4D00;}
	.st1{fill:#FFFFFF;}
</style>
<circle class="st0" cx="132.5" cy="132.5" r="132.4"/>
<g>
	<path class="st1" d="M114.1,92c0-6.1,4.9-11,11-11h14.7c6.1,0,11,4.9,11,11v14.7c0,6.1-4.9,11-11,11H138v9.2H173
		c7.1,0,12.9,5.8,12.9,12.9v7.4h1.8c6.1,0,11,4.9,11,11V173c0,6.1-4.9,11-11,11H173c-6.1,0-11-4.9-11-11v-14.7c0-6.1,4.9-11,11-11
		h1.8v-7.4c0-1-0.8-1.8-1.8-1.8H138v9.2h1.8c6.1,0,11,4.9,11,11V173c0,6.1-4.9,11-11,11h-14.7c-6.1,0-11-4.9-11-11v-14.7
		c0-6.1,4.9-11,11-11h1.8V138H92c-1,0-1.8,0.8-1.8,1.8v7.4H92c6.1,0,11,4.9,11,11V173c0,6.1-4.9,11-11,11H77.3c-6.1,0-11-4.9-11-11
		v-14.7c0-6.1,4.9-11,11-11h1.8v-7.4c0-7.1,5.8-12.9,12.9-12.9H127v-9.2h-1.8c-6.1,0-11-4.9-11-11V92z"/>
</g>
</svg>
