<?xml version="1.0" encoding="utf-8"?>
<!-- Generator: Adobe Illustrator 27.9.1, SVG Export Plug-In . SVG Version: 6.00 Build 0)  -->
<svg version="1.1" id="Calque_1" xmlns="http://www.w3.org/2000/svg" xmlns:xlink="http://www.w3.org/1999/xlink" x="0px" y="0px"
	 viewBox="0 0 265 265" style="enable-background:new 0 0 265 265;" xml:space="preserve">
<style type="text/css">
	.st0{fill:#FF4D00;}
	.st1{fill:#FFFFFF;}
</style>
<circle class="st0" cx="132.5" cy="132.5" r="132.4"/>
<g>
	<path class="st1" d="M129.3,81.8c2-1.1,4.4-1.1,6.4,0l34.6,19.7l0.9,0.3v0.2l9.6,5.5c2.5,1.4,3.8,4.4,3,7.2
		c-0.7,2.8-3.3,4.8-6.2,4.8H87.4c-2.9,0-5.5-2-6.2-4.8c-0.7-2.8,0.5-5.8,3-7.2l9.6-5.5v-0.2l0.9-0.3L129.3,81.8z M93.9,126.1h12.9
		v38.6h8v-38.6h12.9v38.6h9.7v-38.6h12.9v38.6h8v-38.6h12.9v39.5c0.1,0.1,0.2,0.1,0.4,0.2l9.7,6.4c2.7,1.8,3.7,5.3,2.2,8.3
		c-1.1,2.2-3.4,3.5-5.8,3.5H87.5c-2.4,0-4.7-1.3-5.8-3.5c-1.5-3-0.5-6.5,2.2-8.3l9.7-6.4c0.1-0.1,0.2-0.1,0.4-0.2L93.9,126.1
		L93.9,126.1z"/>
</g>
</svg>
