<?xml version="1.0" encoding="utf-8"?>
<!-- Generator: Adobe Illustrator 27.9.1, SVG Export Plug-In . SVG Version: 6.00 Build 0)  -->
<svg version="1.1" id="Calque_1" xmlns="http://www.w3.org/2000/svg" xmlns:xlink="http://www.w3.org/1999/xlink" x="0px" y="0px"
	 viewBox="0 0 264 265" style="enable-background:new 0 0 264 265;" xml:space="preserve">
<style type="text/css">
	.st0{fill:#FF4D00;}
	.st1{fill:#FFFFFF;}
</style>
<circle class="st0" cx="132" cy="132.7" r="132.4"/>
<g>
	<path class="st1" d="M107.2,82.5c2.4,2.1,2.6,5.7,0.4,8.1l-17.2,19.1c-1,1.2-2.5,1.9-4.1,1.9c-1.6,0-3.1-0.6-4.2-1.7l-9.6-9.5
		c-2.2-2.2-2.2-5.9,0-8.1c2.2-2.2,5.9-2.2,8.1,0l5.3,5.3l13.1-14.6C101.3,80.5,104.9,80.4,107.2,82.5L107.2,82.5z M107.2,120.7
		c2.4,2.1,2.6,5.7,0.4,8.1l-17.2,19.1c-1,1.2-2.5,1.9-4.1,1.9c-1.6,0-3.1-0.6-4.2-1.7l-9.6-9.5c-2.2-2.2-2.2-5.9,0-8.1
		c2.2-2.2,5.9-2.2,8.1,0l5.3,5.3l13.1-14.6C101.3,118.8,104.9,118.6,107.2,120.7L107.2,120.7z M132.2,88.6h53.1
		c3.9,0,7.5,3.2,7.8,7.1c0.3,4.5-3.2,8.2-7.6,8.2H132c-4.4,0-7.9-3.7-7.6-8.2C124.7,91.7,128.2,88.6,132.2,88.6z M132.2,126.7h53.1
		c3.9,0,7.5,3.2,7.8,7.1c0.3,4.5-3.2,8.2-7.6,8.2H132c-4.4,0-7.9-3.7-7.6-8.2C124.7,129.9,128.2,126.7,132.2,126.7z M116.9,164.8
		h68.3c3.9,0,7.5,3.2,7.8,7.1c0.3,4.5-3.2,8.2-7.6,8.2h-68.7c-4.4,0-7.9-3.7-7.6-8.2C109.4,168,113,164.8,116.9,164.8z M82.4,161.1
		c6.3,0,11.4,5.1,11.4,11.4S88.7,184,82.4,184S71,178.9,71,172.6S76.1,161.1,82.4,161.1z"/>
</g>
</svg>
