<?xml version="1.0" encoding="UTF-8"?>
<svg id="Calque_1" data-name="Calque 1" xmlns="http://www.w3.org/2000/svg" version="1.1" viewBox="0 0 265 265">
  <defs>
    <style>
      .cls-1 {
        fill: #005387;
      }

      .cls-1, .cls-2 {
        stroke-width: 0px;
      }

      .cls-2 {
        fill: #fff;
      }
    </style>
  </defs>
  <circle class="cls-1" cx="132.8" cy="132.9" r="132.4"/>
  <path class="cls-2" d="M95.7,95.7c0-8.1,6.6-14.7,14.7-14.7h66.2c8.1,0,14.7,6.6,14.7,14.7v73.6c0,8.1-6.6,14.7-14.7,14.7h-95.4c-4.2,0-7.5-3.4-7.5-7.5v-75.7c0-.7.5-1.8,1-2.3,6.3-5.8,13.7-1.5,13.7,4.6v62.4c0,1.8,1.2,3.4,3,3.7,2.3.4,4.4-1.4,4.4-3.6v-69.9h0ZM110.4,101.2v18.4c0,3,2.5,5.5,5.5,5.5h25.8c3,0,5.5-2.5,5.5-5.5v-18.4c0-3-2.5-5.5-5.5-5.5h-25.8c-3,0-5.5,2.5-5.5,5.5ZM162,103.1h10.9c1.8,0,3.4-1.2,3.7-3,.4-2.3-1.4-4.4-3.6-4.4h-11c-2.2,0-4,2-3.6,4.4.3,1.7,1.9,3,3.6,3ZM162,125.1h10.9c1.8,0,3.4-1.2,3.7-3,.4-2.3-1.4-4.4-3.6-4.4h-11c-2.2,0-4,2-3.6,4.4.3,1.8,1.9,3,3.6,3ZM114.2,147.2h58.7c1.8,0,3.4-1.2,3.7-3,.4-2.3-1.4-4.4-3.6-4.4h-58.9c-2.2,0-4,2-3.6,4.4.3,1.8,1.9,3,3.7,3ZM114.2,169.3h58.7c1.8,0,3.4-1.2,3.7-3,.4-2.3-1.4-4.4-3.6-4.4h-58.9c-2.2,0-4,2-3.6,4.4.3,1.8,1.9,3,3.7,3Z"/>
</svg>