<?xml version="1.0" encoding="utf-8"?>
<!-- Generator: Adobe Illustrator 27.9.1, SVG Export Plug-In . SVG Version: 6.00 Build 0)  -->
<svg version="1.1" id="Calque_1" xmlns="http://www.w3.org/2000/svg" xmlns:xlink="http://www.w3.org/1999/xlink" x="0px" y="0px"
	 viewBox="0 0 265 265" style="enable-background:new 0 0 265 265;" xml:space="preserve">
<style type="text/css">
	.st0{fill:#FF4D00;}
	.st1{fill:#FFFFFF;}
</style>
<circle class="st0" cx="132.5" cy="132.5" r="132.4"/>
<g>
	<path class="st1" d="M77.3,95.7v73.6c0,2,1.7,3.7,3.7,3.7h103c2,0,3.7-1.7,3.7-3.7V95.7c0-2-1.7-3.7-3.7-3.7H81
		C79,92,77.3,93.7,77.3,95.7z M81,81h103c8.1,0,14.7,6.6,14.7,14.7v73.6c0,8.1-6.6,14.7-14.7,14.7H81c-8.1,0-14.7-6.6-14.7-14.7
		V95.7C66.3,87.6,72.9,81,81,81z M88.4,110.5c0-4.1,3.3-7.4,7.4-7.4c4.1,0,7.4,3.3,7.4,7.4s-3.3,7.4-7.4,7.4
		C91.6,117.8,88.4,114.5,88.4,110.5z M117.9,104.9h51.3c2.9,0,5.4,2.2,5.6,5.1c0.2,3.2-2.3,5.9-5.5,5.9h-51.5
		c-3.2,0-5.7-2.7-5.5-5.9C112.5,107.1,115,104.9,117.9,104.9z M117.9,127h51.3c2.9,0,5.4,2.2,5.6,5.1c0.2,3.2-2.3,5.9-5.5,5.9h-51.5
		c-3.2,0-5.7-2.7-5.5-5.9C112.5,129.2,115,127,117.9,127z M117.9,149.1h51.3c2.9,0,5.4,2.2,5.6,5.1c0.2,3.2-2.3,5.9-5.5,5.9h-51.5
		c-3.2,0-5.7-2.7-5.5-5.9C112.5,151.3,115,149.1,117.9,149.1z M95.7,139.9c-4.1,0-7.4-3.3-7.4-7.4c0-4.1,3.3-7.4,7.4-7.4
		c4.1,0,7.4,3.3,7.4,7.4C103.1,136.6,99.8,139.9,95.7,139.9z M88.4,154.6c0-4.1,3.3-7.4,7.4-7.4c4.1,0,7.4,3.3,7.4,7.4
		c0,4.1-3.3,7.4-7.4,7.4C91.6,162,88.4,158.7,88.4,154.6z"/>
</g>
</svg>
