<?xml version="1.0" encoding="utf-8"?>
<!-- Generator: Adobe Illustrator 27.9.1, SVG Export Plug-In . SVG Version: 6.00 Build 0)  -->
<svg version="1.1" id="Calque_1" xmlns="http://www.w3.org/2000/svg" xmlns:xlink="http://www.w3.org/1999/xlink" x="0px" y="0px"
	 viewBox="0 0 266 265" style="enable-background:new 0 0 266 265;" xml:space="preserve">
<style type="text/css">
	.st0{fill:#FF4D00;}
	.st1{fill:#FFFFFF;}
</style>
<circle class="st0" cx="133.1" cy="132.7" r="132.4"/>
<g>
	<path class="st1" d="M133,81c-18.6,0-33.5,8.5-44.3,18.5c-10.8,10-18,21.9-21.4,30.1c-0.8,1.8-0.8,3.8,0,5.7
		c3.4,8.2,10.6,20.2,21.4,30.1C99.5,175.5,114.4,184,133,184s33.5-8.5,44.3-18.5c10.8-10,18-21.9,21.4-30.1c0.8-1.8,0.8-3.8,0-5.7
		c-3.4-8.2-10.6-20.2-21.4-30.1C166.4,89.5,151.6,81,133,81z M99.9,132.5c0-18.3,14.8-33.1,33.1-33.1s33.1,14.8,33.1,33.1
		s-14.8,33.1-33.1,33.1S99.9,150.8,99.9,132.5z M133,117.8c0,8.1-6.6,14.7-14.7,14.7c-1.6,0-3.2-0.3-4.7-0.8
		c-1.3-0.4-2.7,0.4-2.7,1.7c0.1,1.6,0.3,3.2,0.7,4.8c3.1,11.8,15.3,18.8,27,15.6s18.8-15.3,15.6-27c-2.6-9.5-11-16-20.4-16.3
		c-1.3,0-2.1,1.4-1.7,2.7C132.7,114.6,133,116.2,133,117.8L133,117.8z"/>
</g>
<circle class="st1" cx="133" cy="132" r="22"/>
</svg>
