<?xml version="1.0" encoding="utf-8"?>
<!-- Generator: Adobe Illustrator 27.9.3, SVG Export Plug-In . SVG Version: 9.03 Build 53313)  -->
<svg version="1.1" id="Calque_1" xmlns="http://www.w3.org/2000/svg" xmlns:xlink="http://www.w3.org/1999/xlink" x="0px" y="0px"
	 viewBox="0 0 512 512" style="enable-background:new 0 0 512 512;" xml:space="preserve">
<style type="text/css">
	.st0{fill:#FFFFFF;}
</style>
<path class="st0" d="M256.1,124.7c-72.7,0-131.3,58.6-131.3,131.3s58.6,131.3,131.3,131.3S387.3,328.7,387.3,256
	S328.7,124.7,256.1,124.7z M256.1,341.3c-47,0-85.3-38.3-85.3-85.3s38.3-85.3,85.3-85.3s85.3,38.3,85.3,85.3S303,341.3,256.1,341.3
	L256.1,341.3z M423.3,119.4c0,17-13.7,30.6-30.6,30.6c-17,0-30.6-13.7-30.6-30.6s13.7-30.6,30.6-30.6
	C409.6,88.7,423.3,102.5,423.3,119.4z M510.3,150.4c-1.9-41-11.3-77.3-41.4-107.3C439,13.2,402.6,3.9,361.6,1.8
	c-42.3-2.4-169-2.4-211.2,0C109.5,3.7,73.1,13.1,43.1,43S3.8,109.3,1.7,150.3c-2.4,42.3-2.4,169,0,211.2
	c1.9,41,11.3,77.3,41.4,107.3c30,29.9,66.3,39.3,107.3,41.4c42.3,2.4,169,2.4,211.2,0c41-1.9,77.3-11.3,107.3-41.4
	c29.9-29.9,39.3-66.3,41.4-107.3C512.7,319.3,512.7,192.7,510.3,150.4L510.3,150.4z M455.6,406.9c-8.9,22.4-26.2,39.6-48.7,48.7
	C373.2,469,293.2,465.9,256,465.9s-117.3,3-150.9-10.3c-22.4-8.9-39.6-26.2-48.7-48.7C43.1,373.2,46.2,293.2,46.2,256
	s-3-117.3,10.3-150.9c8.9-22.4,26.2-39.6,48.7-48.7C138.8,43,218.8,46.1,256.1,46.1s117.3-3,150.9,10.3
	c22.4,8.9,39.6,26.2,48.7,48.7C469.1,138.8,466,218.8,466,256S469,373.3,455.6,406.9z"/>
</svg>
