<?xml version="1.0" encoding="utf-8"?>
<!-- Generator: Adobe Illustrator 27.9.1, SVG Export Plug-In . SVG Version: 6.00 Build 0)  -->
<svg version="1.1" id="Calque_1" xmlns="http://www.w3.org/2000/svg" xmlns:xlink="http://www.w3.org/1999/xlink" x="0px" y="0px"
	 viewBox="0 0 264.8 264.8" style="enable-background:new 0 0 264.8 264.8;" xml:space="preserve">
<style type="text/css">
	.st0{fill:#FF4D00;}
	.st1{fill:#FFFFFF;}
</style>
<circle class="st0" cx="132.4" cy="132.4" r="132.4"/>
<g>
	<path class="st1" d="M149.3,81.7c0-9.3-7.6-16.9-16.9-16.9s-16.9,7.6-16.9,16.9s7.6,16.9,16.9,16.9S149.3,91.1,149.3,81.7z
		 M122.1,109.5c-6.3-2.2-11.7-6.4-15.5-12.1l-5.1-7.7c-2.6-3.9-7.8-4.9-11.7-2.3c-3.9,2.6-4.9,7.8-2.3,11.7l5.2,7.7
		c4.8,7.2,11.3,12.8,18.8,16.5v68.3c0,4.7,3.8,8.4,8.4,8.4s8.4-3.8,8.4-8.4v-25.3h8.4v25.3c0,4.7,3.8,8.4,8.4,8.4
		c4.7,0,8.4-3.8,8.4-8.4v-68.2c7.7-3.7,14.4-9.6,19.2-16.9l4.8-7.4c2.5-3.9,1.4-9.1-2.5-11.7c-3.9-2.6-9.1-1.5-11.7,2.5l-4.8,7.3
		c-5.8,8.8-15.6,14.2-26.1,14.2c-3.3,0-6.6-0.5-9.7-1.5C122.6,109.7,122.3,109.6,122.1,109.5L122.1,109.5z"/>
</g>
</svg>
