<?xml version="1.0" encoding="utf-8"?>
<!-- Generator: Adobe Illustrator 27.9.2, SVG Export Plug-In . SVG Version: 6.00 Build 0)  -->
<svg version="1.1" id="Calque_1" xmlns="http://www.w3.org/2000/svg" xmlns:xlink="http://www.w3.org/1999/xlink" x="0px" y="0px"
	 viewBox="0 0 273.5 162.2" style="enable-background:new 0 0 273.5 162.2;" xml:space="preserve">
<style type="text/css">
	.st0{fill:#002E7A;}
	.st1{fill:#FFFFFF;}
</style>
<rect x="136.9" y="12.4" class="st0" width="121" height="137"/>
<path class="st0" d="M39.9,149.4c2-4.3,4-8.7,6-13c3.3,0.3,6.4-1.2,8-4c2.2-3.9,0.1-7.8,0-8c-2.2-0.4-13.6-2.6-17-11
	c-0.3-0.7-2.6-6.4,0-9c1.3-1.3,3.4-1.4,5-1c3,0.8,3.3,3.5,6,6c3.7,3.4,10.7,5,15,2c2.6-1.8,4-5.2,4-8c0-3.5-2-4.4-3-9
	c-0.6-2.7-1.2-5.5,0-8c3-6.3,15.3-5.4,16.9-10.2c0.8-2.4,0.5-4.8,0.5-4.8c-0.1-0.8-0.1-1.4-0.4-2c-0.5-1.1-1.5-1.7-2-2
	c-10.7-8.1-14.6-16.1-16.3-21.6c-4.4-14.8,0.2-33.4,0.2-33.4l0,0h-47v137H39.9z"/>
<circle class="st1" cx="38.9" cy="44.4" r="7"/>
<path class="st1" d="M233.9,149.4c-2-4.3-4-8.7-6-13c-3.3,0.3-6.4-1.2-8-4c-2.2-3.9-0.1-7.8,0-8c2.2-0.4,13.6-2.6,17-11
	c0.3-0.7,2.6-6.4,0-9c-1.3-1.3-3.4-1.4-5-1c-3,0.8-3.3,3.5-6,6c-3.7,3.4-10.7,5-15,2c-2.6-1.8-4-5.2-4-8c0-3.5,2-4.4,3-9
	c0.6-2.7,1.2-5.5,0-8c-3-6.3-15.3-5.4-16.9-10.2c-0.8-2.4-0.5-4.8-0.5-4.8c0.1-0.8,0.1-1.4,0.4-2c0.5-1.1,1.5-1.7,2-2
	c10.7-8.1,14.6-16.1,16.3-21.6c4.4-14.8-0.2-33.4-0.2-33.4l0,0h47v137H233.9z"/>
<circle class="st0" cx="234.9" cy="44.4" r="7"/>
<g>
	<g>
		<path class="st0" d="M161.6,99.4L161.6,99.4c-4.3-0.8-7.2-4.9-6.5-9.3l5.1-28.7c0.8-4.3,4.9-7.2,9.3-6.5l0,0
			c4.3,0.8,7.2,4.9,6.5,9.3l-5.1,28.7C170.1,97.3,165.9,100.2,161.6,99.4z"/>
		<path class="st1" d="M163,100c-0.5,0-1,0-1.5-0.1l0,0c-2.2-0.4-4.2-1.6-5.5-3.5c-1.3-1.9-1.8-4.1-1.4-6.4l5.1-28.7
			c0.8-4.6,5.3-7.7,9.9-6.9c2.2,0.4,4.2,1.6,5.5,3.5c1.3,1.9,1.8,4.1,1.4,6.4L171.3,93C170.6,97.1,167,100,163,100z M161.7,98.9
			c4.1,0.7,8-2,8.7-6.1l5.1-28.7c0.4-2-0.1-4-1.2-5.6c-1.1-1.6-2.9-2.7-4.8-3.1c-4.1-0.7-8,2-8.7,6.1l-5.1,28.7
			C154.9,94.3,157.6,98.2,161.7,98.9L161.7,98.9z"/>
	</g>
	<g>
		<path class="st0" d="M142,97.3L142,97.3c-4.4,0-8-3.6-8-8V55.8c0-4.4,3.6-8,8-8h0c4.4,0,8,3.6,8,8v33.5
			C150,93.7,146.5,97.3,142,97.3z"/>
		<path class="st1" d="M142,97.8c-4.7,0-8.5-3.8-8.5-8.5V55.8c0-4.7,3.8-8.5,8.5-8.5c4.7,0,8.5,3.8,8.5,8.5v33.5
			C150.5,94,146.7,97.8,142,97.8z M142,48.3c-4.1,0-7.5,3.4-7.5,7.5v33.5c0,4.1,3.4,7.5,7.5,7.5s7.5-3.4,7.5-7.5V55.8
			C149.5,51.7,146.2,48.3,142,48.3z"/>
	</g>
	<g>
		<path class="st0" d="M120.9,107.4L120.9,107.4c-4.4,0.3-8.3-3-8.6-7.4l-2.6-33.4c-0.3-4.4,3-8.3,7.4-8.6h0c4.4-0.3,8.3,3,8.6,7.4
			l2.6,33.4C128.6,103.2,125.3,107,120.9,107.4z"/>
		<path class="st1" d="M120.3,107.9c-4.4,0-8.1-3.4-8.5-7.8l-2.6-33.4c-0.4-4.7,3.1-8.8,7.8-9.1c4.7-0.4,8.8,3.1,9.1,7.8l2.6,33.4
			c0.4,4.7-3.1,8.8-7.8,9.1C120.8,107.9,120.5,107.9,120.3,107.9z M120.9,106.9l0,0.5L120.9,106.9c4.1-0.3,7.2-3.9,6.9-8.1
			l-2.6-33.4c-0.3-4.1-3.9-7.2-8.1-6.9c-2,0.2-3.8,1.1-5.1,2.6s-1.9,3.5-1.8,5.5l2.6,33.4c0.2,2,1.1,3.8,2.6,5.1
			C117,106.4,118.9,107,120.9,106.9z"/>
	</g>
	<g>
		<path class="st0" d="M109.6,126.5L109.6,126.5c-4.1,1.7-8.8-0.2-10.5-4.3L86.2,91.3c-1.7-4.1,0.2-8.8,4.3-10.5h0
			c4.1-1.7,8.8,0.2,10.5,4.3l12.9,30.9C115.6,120.2,113.6,124.8,109.6,126.5z"/>
		<path class="st1" d="M106.5,127.7c-3.3,0-6.5-2-7.9-5.2L85.7,91.5c-1.8-4.3,0.2-9.3,4.6-11.1c2.1-0.9,4.4-0.9,6.5,0
			c2.1,0.9,3.7,2.5,4.6,4.6l12.9,30.9c0.9,2.1,0.9,4.4,0,6.5c-0.9,2.1-2.5,3.7-4.6,4.6C108.7,127.5,107.6,127.7,106.5,127.7z
			 M93.6,80.8c-1,0-2,0.2-2.9,0.6c-1.8,0.8-3.3,2.2-4,4.1c-0.8,1.9-0.8,3.9,0,5.7l12.9,30.9c0.8,1.8,2.2,3.3,4.1,4s3.9,0.8,5.7,0
			s3.3-2.2,4-4.1s0.8-3.9,0-5.7l-12.9-30.9c-0.8-1.8-2.2-3.3-4.1-4C95.5,80.9,94.6,80.8,93.6,80.8z"/>
	</g>
	<g>
		<path class="st0" d="M202.2,132.1l-19.4,19.3h-21.9l31-31c1.5-1.4,3.3-2.2,5.1-2.2c2,0,4,0.9,5.5,2.5
			C205.4,124,205.2,129.1,202.2,132.1z"/>
		<path class="st1" d="M183,151.9h-23.3l31.9-31.8c1.5-1.5,3.4-2.3,5.5-2.3c2.2,0,4.3,1,5.8,2.7c3,3.4,2.8,8.8-0.4,12L183,151.9z
			 M162.1,150.9h20.5l19.2-19.2c2.8-2.8,3-7.6,0.3-10.6c-1.3-1.5-3.2-2.4-5.1-2.4c-1.8,0-3.5,0.7-4.8,2L162.1,150.9z"/>
	</g>
	<g>
		<path class="st0" d="M146.6,116.7c-0.5-0.5-1.2-0.5-1.6,0c-0.6,0.6-0.6,1.5,0,2c0.7,0.7,1.9,0.7,2.6,0c0.9-0.9,0.9-2.3,0-3.2
			c-1.1-1.1-2.9-1.1-4,0c-1.4,1.4-1.4,3.6,0,5c1.7,1.7,4.5,1.7,6.2,0c2.2-2.2,2.2-5.6,0-7.8c-2.7-2.7-7.1-2.7-9.8,0
			c-3.4,3.4-3.4,8.8,0,12.2c4.2,4.2,11,4.2,15.3,0c5.3-5.3,5.3-13.8,0-19.1c-6.6-6.6-17.3-6.6-23.8,0c-8.2,8.2-8.2,21.6,0,29.8
			c10.3,10.3,26.9,10.3,37.2,0c12.8-12.9,12.8-33.7,0-46.5c-16.1-16.1-42.1-16.1-58.2,0c-17,17-19.6,43-7.8,62.7h73.1l-7.2-16.2"/>
		<path class="st1" d="M176.8,152.5h-74.5l-0.2-0.3c-12.3-20.5-9-46.6,7.9-63.5c16.3-16.3,42.8-16.3,59.1,0c13,13,13.1,34,0.3,47.1
			L176.8,152.5z M103.1,151.2h71.8l-6.4-14.4c-10.6,9.8-27.2,9.6-37.5-0.6c-4.1-4.1-6.4-9.6-6.4-15.3c0-5.8,2.3-11.2,6.4-15.3
			c3.3-3.3,7.7-5.1,12.4-5.1c4.7,0,9.1,1.8,12.4,5.1c5.5,5.5,5.5,14.5,0,20c-4.5,4.5-11.7,4.5-16.2,0c-3.6-3.6-3.6-9.5,0-13.1
			c1.4-1.4,3.3-2.2,5.3-2.2c2,0,3.9,0.8,5.3,2.2c2.4,2.4,2.4,6.3,0,8.7c-0.9,1-2.2,1.5-3.6,1.5c0,0,0,0,0,0c-1.4,0-2.6-0.5-3.6-1.5
			c-1.6-1.6-1.6-4.3,0-5.9c1.4-1.4,3.6-1.3,4.9,0c1.1,1.1,1.1,3,0,4.1c-1,1-2.5,1-3.5,0c-0.8-0.8-0.8-2.2,0-3c0.7-0.7,1.8-0.7,2.5,0
			l-0.9,0.9c-0.2-0.2-0.5-0.2-0.7,0c-0.3,0.3-0.3,0.8,0,1.1c0.5,0.4,1.2,0.4,1.6,0c0.6-0.6,0.6-1.7,0-2.3c-0.8-0.8-2.2-0.8-3.1,0
			c-1.1,1.1-1.1,3,0,4.1c0.7,0.7,1.7,1.1,2.7,1.1c0,0,0,0,0,0c1,0,1.9-0.4,2.7-1.1c1.9-1.9,1.9-5,0-6.9c-1.2-1.2-2.8-1.8-4.4-1.8
			s-3.2,0.7-4.4,1.8c-3.1,3.1-3.1,8.2,0,11.3c4,4,10.4,4,14.3,0c5-5,5-13.1,0-18.1c-3.1-3.1-7.1-4.8-11.5-4.8s-8.4,1.7-11.5,4.8
			c-3.9,3.9-6,9-6,14.4c0,5.5,2.1,10.6,6,14.4c10,10,26.3,10,36.3,0c12.6-12.6,12.6-33,0-45.6c-15.8-15.8-41.5-15.8-57.2,0
			C94.6,106,91.4,131.3,103.1,151.2z"/>
	</g>
</g>
<path class="st0" d="M257.9,12.4v137h-242v-137H257.9 M265.9,4.4h-8h-242h-8v8v137v8h8h242h8v-8v-137V4.4L265.9,4.4z"/>
</svg>
