<?xml version="1.0" encoding="UTF-8"?>
<svg id="Calque_1" data-name="Calque 1" xmlns="http://www.w3.org/2000/svg" version="1.1" viewBox="0 0 258 153">
  <defs>
    <style>
      .cls-1 {
        fill: #002e7a;
      }

      .cls-1, .cls-2, .cls-3 {
        stroke-width: 0px;
      }

      .cls-2 {
        fill: #005387;
      }

      .cls-3 {
        fill: #fff;
      }
    </style>
  </defs>
  <path class="cls-2" d="M250,8v137h-118.8c-3.4-21.9-5.2-44.8-5.2-68.5s1.8-46.7,5.2-68.5h118.8Z"/>
  <path class="cls-2" d="M32,145c2-4.3,4-8.7,6-13,3.3.3,6.4-1.2,8-4,2.2-3.9.1-7.8,0-8-2.2-.4-13.6-2.6-17-11-.3-.7-2.6-6.4,0-9,1.3-1.3,3.4-1.4,5-1,3,.8,3.3,3.5,6,6,3.7,3.4,10.7,5,15,2,2.6-1.8,4-5.2,4-8,0-3.5-2-4.4-3-9-.6-2.7-1.2-5.5,0-8,3-6.3,15.3-5.4,16.9-10.2.8-2.4.5-4.8.5-4.8-.1-.8,0-1.4-.4-2-.5-1.1-1.5-1.7-2-2-10.7-8.1-14.6-16.1-16.3-21.6-4.4-14.8.2-33.4.2-33.4H8v137h24Z"/>
  <circle class="cls-3" cx="31" cy="40" r="7"/>
  <path class="cls-3" d="M226,145c-2-4.3-4-8.7-6-13-3.3.3-6.4-1.2-8-4-2.2-3.9-.1-7.8,0-8,2.2-.4,13.6-2.6,17-11,.3-.7,2.6-6.4,0-9-1.3-1.3-3.4-1.4-5-1-3,.8-3.3,3.5-6,6-3.7,3.4-10.7,5-15,2-2.6-1.8-4-5.2-4-8,0-3.5,2-4.4,3-9,.6-2.7,1.2-5.5,0-8-3-6.3-15.3-5.4-16.9-10.2-.8-2.4-.5-4.8-.5-4.8.1-.8,0-1.4.4-2,.5-1.1,1.5-1.7,2-2,10.7-8.1,14.6-16.1,16.3-21.6,4.4-14.8-.2-33.4-.2-33.4h47v137h-24Z"/>
  <circle class="cls-1" cx="227" cy="40" r="7"/>
  <g>
    <g>
      <rect class="cls-2" x="143.6" y="50.5" width="16" height="45.2" rx="8" ry="8" transform="translate(15.3 -25.6) rotate(10.2)"/>
      <path class="cls-3" d="M149.1,95.9c-.5,0-1,0-1.5-.1h0c-4.6-.8-7.7-5.3-6.9-9.9l5.1-28.7c.4-2.2,1.6-4.2,3.5-5.5,1.9-1.3,4.1-1.8,6.4-1.4,2.2.4,4.2,1.6,5.5,3.5,1.3,1.9,1.8,4.1,1.4,6.4l-5.1,28.7c-.7,4.1-4.3,7-8.4,7ZM147.8,94.8c4.1.7,8-2,8.7-6.1l5.1-28.7c.4-2,0-4-1.2-5.6-1.1-1.6-2.9-2.7-4.8-3.1-2-.4-4,0-5.6,1.2-1.6,1.1-2.7,2.9-3.1,4.8l-5.1,28.7c-.7,4.1,2,8,6.1,8.7h0Z"/>
    </g>
    <g>
      <rect class="cls-2" x="120.1" y="43.7" width="16" height="49.5" rx="8" ry="8"/>
      <path class="cls-3" d="M128.1,93.7c-4.7,0-8.5-3.8-8.5-8.5v-33.5c0-4.7,3.8-8.5,8.5-8.5s8.5,3.8,8.5,8.5v33.5c0,4.7-3.8,8.5-8.5,8.5ZM128.1,44.2c-4.1,0-7.5,3.4-7.5,7.5v33.5c0,4.1,3.4,7.5,7.5,7.5s7.5-3.4,7.5-7.5v-33.5c0-4.1-3.4-7.5-7.5-7.5Z"/>
    </g>
    <g>
      <rect class="cls-2" x="97.1" y="53.8" width="16" height="49.5" rx="8" ry="8" transform="translate(-5.7 8.3) rotate(-4.4)"/>
      <path class="cls-3" d="M106.4,103.8c-4.4,0-8.1-3.4-8.5-7.8l-2.6-33.4c-.4-4.7,3.1-8.8,7.8-9.1,4.7-.4,8.8,3.1,9.1,7.8l2.6,33.4c.4,4.7-3.1,8.8-7.8,9.1-.2,0-.4,0-.7,0ZM103.9,54.4c-.2,0-.4,0-.6,0-2,.2-3.8,1.1-5.1,2.6-1.3,1.5-1.9,3.5-1.8,5.5l2.6,33.4c.2,2,1.1,3.8,2.6,5.1,1.5,1.3,3.5,1.9,5.5,1.8,2-.2,3.8-1.1,5.1-2.6,1.3-1.5,1.9-3.5,1.8-5.5l-2.6-33.4c-.2-2-1.1-3.8-2.6-5.1-1.4-1.2-3.1-1.8-4.9-1.8Z"/>
    </g>
    <g>
      <rect class="cls-2" x="78.1" y="74.8" width="16" height="49.5" rx="8" ry="8" transform="translate(-31.7 40.8) rotate(-22.6)"/>
      <path class="cls-3" d="M92.6,123.5c-1.1,0-2.2-.2-3.2-.6-2.1-.9-3.7-2.5-4.6-4.6l-12.9-30.9c-.9-2.1-.9-4.4,0-6.5.9-2.1,2.5-3.7,4.6-4.6,2.1-.9,4.4-.9,6.5,0,2.1.9,3.7,2.5,4.6,4.6l12.9,30.9c.9,2.1.9,4.4,0,6.5-.9,2.1-2.5,3.7-4.6,4.6-1.1.4-2.2.7-3.3.7ZM79.7,76.6c-1,0-2,.2-2.9.6-1.8.8-3.3,2.2-4,4.1s-.8,3.9,0,5.7l12.9,30.9c.8,1.8,2.2,3.3,4.1,4,1.9.8,3.9.8,5.7,0,1.8-.8,3.3-2.2,4-4.1.8-1.9.8-3.9,0-5.7l-12.9-30.9c-.8-1.8-2.2-3.3-4.1-4-.9-.4-1.9-.6-2.9-.6Z"/>
    </g>
    <g>
      <path class="cls-2" d="M188.3,128l-19.4,19.3h-21.9l31-31c1.5-1.4,3.3-2.2,5.1-2.2s4,.9,5.5,2.5c2.8,3.2,2.7,8.3-.3,11.3Z"/>
      <path class="cls-3" d="M169.1,147.8h-23.3l31.9-31.8c1.5-1.5,3.4-2.3,5.5-2.3s4.3,1,5.8,2.7c3,3.4,2.8,8.8-.4,12l-19.5,19.5ZM148.2,146.8h20.5l19.2-19.2c2.8-2.8,3-7.6.3-10.6-1.3-1.5-3.2-2.4-5.1-2.4s-3.5.7-4.8,2l-30.2,30.1Z"/>
    </g>
    <g>
      <path class="cls-2" d="M132.7,112.6c-.5-.5-1.2-.5-1.6,0s-.6,1.5,0,2c.7.7,1.9.7,2.6,0s.9-2.3,0-3.2-2.9-1.1-4,0c-1.4,1.4-1.4,3.6,0,5s4.5,1.7,6.2,0c2.2-2.2,2.2-5.6,0-7.8-2.7-2.7-7.1-2.7-9.8,0-3.4,3.4-3.4,8.8,0,12.2,4.2,4.2,11,4.2,15.3,0,5.3-5.3,5.3-13.8,0-19.1-6.6-6.6-17.3-6.6-23.8,0-8.2,8.2-8.2,21.6,0,29.8,10.3,10.3,26.9,10.3,37.2,0,12.8-12.9,12.8-33.7,0-46.5-16.1-16.1-42.1-16.1-58.2,0-17,17-19.6,43-7.8,62.7h73.1l-7.2-16.2"/>
      <path class="cls-3" d="M162.9,148.4h-74.5l-.2-.3c-12.3-20.5-9-46.6,7.9-63.5,16.3-16.3,42.8-16.3,59.1,0,13,13,13.1,34,.3,47.1l7.4,16.7ZM89.2,147.1h71.8l-6.4-14.4c-10.6,9.8-27.2,9.6-37.5-.6-4.1-4.1-6.4-9.6-6.4-15.3s2.3-11.2,6.4-15.3c3.3-3.3,7.7-5.1,12.4-5.1s9.1,1.8,12.4,5.1c5.5,5.5,5.5,14.5,0,20-4.5,4.5-11.7,4.5-16.2,0-3.6-3.6-3.6-9.5,0-13.1,1.4-1.4,3.3-2.2,5.3-2.2s3.9.8,5.3,2.2c2.4,2.4,2.4,6.3,0,8.7-.9,1-2.2,1.5-3.6,1.5h0c-1.4,0-2.6-.5-3.6-1.5-1.6-1.6-1.6-4.3,0-5.9,1.4-1.4,3.6-1.3,4.9,0,1.1,1.1,1.1,3,0,4.1-1,1-2.5,1-3.5,0-.8-.8-.8-2.2,0-3,.7-.7,1.8-.7,2.5,0l-.9.9c-.2-.2-.5-.2-.7,0-.3.3-.3.8,0,1.1.5.4,1.2.4,1.6,0,.6-.6.6-1.7,0-2.3-.8-.8-2.2-.8-3.1,0-1.1,1.1-1.1,3,0,4.1s1.7,1.1,2.7,1.1h0c1,0,1.9-.4,2.7-1.1,1.9-1.9,1.9-5,0-6.9-1.2-1.2-2.8-1.8-4.4-1.8s-3.2.7-4.4,1.8c-3.1,3.1-3.1,8.2,0,11.3,4,4,10.4,4,14.3,0,5-5,5-13.1,0-18.1-3.1-3.1-7.1-4.8-11.5-4.8s-8.4,1.7-11.5,4.8c-3.9,3.9-6,9-6,14.4s2.1,10.6,6,14.4c10,10,26.3,10,36.3,0,12.6-12.6,12.6-33,0-45.6-15.8-15.8-41.5-15.8-57.2,0-16.4,16.4-19.6,41.7-7.9,61.6Z"/>
    </g>
  </g>
  <path class="cls-2" d="M250,8v137H8V8h242M258,0H0v153h258V0h0Z"/>
</svg>